# xmcd
#
# Track frame offsets:
#	187
#	12215
#	23432
#	39077
#	51100
#	62335
#	76095
#	87382
#	103502
#	116537
#
# Disc length: 1732 seconds
# Revision: 2
# Processed by: cddbd v1.5.2PL0 Copyright (c) Steve Scherf et al.
# Submitted via: dBpowerAMP V12.0
#
DISCID=6106c20a
DTITLE=George Strait - Strait From The Heart
DYEAR=1982
DGENRE=Country*
TTITLE0=Fool Hearted Memory
TTITLE1=Honky Tonk Crazy
TTITLE2=Only Thing I Have Left
TTITLE3=The Steal Of The Night
TTITLE4=I Can't See Texas From Here
TTITLE5=Marina Del Ray
TTITLE6=Lover In Disguise
TTITLE7=Heartbroke
TTITLE8=Amarillo By Morning
TTITLE9=A Fire I Can't Put Out
EXTD=
EXTT0=
EXTT1=
EXTT2=
EXTT3=
EXTT4=
EXTT5=
EXTT6=
EXTT7=
EXTT8=
EXTT9=
PLAYORDER=
